<?xml version="1.0" encoding="UTF-8"?>
<svg id="Calque_1" data-name="Calque 1" xmlns="http://www.w3.org/2000/svg" viewBox="0 0 445.48 326.13">
  <defs>
    <style>
      .cls-1 {
        fill: #213547;
        stroke-width: 0px;
      }
    </style>
  </defs>
  <polygon class="cls-1" points="21.33 81.92 91.62 52.16 45.7 104.6 21.33 81.92"/>
  <polygon class="cls-1" points="125.88 174.08 146.38 100.54 100.26 152.81 125.88 174.08"/>
  <path class="cls-1" d="m186.3,0s-2.83,36.57-16.16,54.99c0,0-22.21,34.96-46.82,59.91l-29.14,33.26-12.09,35.91s-18.14.19-21.35-3.21l-3.21-19.84s-1.13-2.08-2.46.57c0,0-26.83,38.36-16.06,77.67,0,0,13.23,55.56,98.83,56.88,0,0,54.99,9.26,153.26-31.56,0,0,117.07-49.89,154.39-133.42,0,0-5.2,21.5-26.46,49.28,0,0-49.13,77.53-184.06,125.53,0,0-185.57,63.5-229.8-34.77,0,0-26.08-49.89,38.93-122.46l-21.64-.33-4.68-13.32-.71-9.07,34.02-15.45,63.5-71.72S149.73,4.54,186.3,0Z"/>
</svg>